<svg width="48" height="48" viewBox="0 0 48 48" fill="none" xmlns="http://www.w3.org/2000/svg">
<rect width="48" height="48" rx="8" fill="#5051F9"/>
<path d="M16 18C16 16.8954 16.8954 16 18 16H20C21.1046 16 22 16.8954 22 18V20C22 21.1046 21.1046 22 20 22H18C16.8954 22 16 21.1046 16 20V18Z" stroke="white" stroke-width="2" stroke-linecap="round" stroke-linejoin="round"/>
<path d="M26 18C26 16.8954 26.8954 16 28 16H30C31.1046 16 32 16.8954 32 18V20C32 21.1046 31.1046 22 30 22H28C26.8954 22 26 21.1046 26 20V18Z" stroke="white" stroke-width="2" stroke-linecap="round" stroke-linejoin="round"/>
<path d="M16 28C16 26.8954 16.8954 26 18 26H20C21.1046 26 22 26.8954 22 28V30C22 31.1046 21.1046 32 20 32H18C16.8954 32 16 31.1046 16 30V28Z" stroke="white" stroke-width="2" stroke-linecap="round" stroke-linejoin="round"/>
<path d="M26 28C26 26.8954 26.8954 26 28 26H30C31.1046 26 32 26.8954 32 28V30C32 31.1046 31.1046 32 30 32H28C26.8954 32 26 31.1046 26 30V28Z" stroke="white" stroke-width="2" stroke-linecap="round" stroke-linejoin="round"/>
</svg>
