<svg width="20" height="20" viewBox="0 0 20 20" fill="none" xmlns="http://www.w3.org/2000/svg">
<g clip-path="url(#clip0_2298_59)">
<path d="M9.99996 2.5C7.08329 2.5 4.16663 7.775 4.16663 11.6667C4.16663 14.8917 6.77496 17.5 9.99996 17.5C13.225 17.5 15.8333 14.8917 15.8333 11.6667C15.8333 7.775 12.9166 2.5 9.99996 2.5ZM9.99996 15.8333C7.69996 15.8333 5.83329 13.9667 5.83329 11.6667C5.83329 8.25833 8.39163 4.16667 9.99996 4.16667C11.6083 4.16667 14.1666 8.25833 14.1666 11.6667C14.1666 13.9667 12.3 15.8333 9.99996 15.8333Z" fill="white"/>
<path d="M10.8333 13.3333C10.35 13.3333 8.33329 13.2667 8.33329 10.8333C8.33329 10.375 7.95829 10 7.49996 10C7.04163 10 6.66663 10.375 6.66663 10.8333C6.66663 13.3333 8.32496 15 10.8333 15C11.2916 15 11.6666 14.625 11.6666 14.1667C11.6666 13.7083 11.2916 13.3333 10.8333 13.3333Z" fill="white"/>
</g>
<defs>
<clipPath id="clip0_2298_59">
<rect width="20" height="20" fill="white"/>
</clipPath>
</defs>
</svg>
